<?xml version="1.0" encoding="utf-8"?>
<!-- Generator: Adobe Illustrator 25.0.0, SVG Export Plug-In . SVG Version: 6.00 Build 0)  -->
<svg version="1.1" id="Layer_1" xmlns="http://www.w3.org/2000/svg" xmlns:xlink="http://www.w3.org/1999/xlink" x="0px" y="0px"
	 viewBox="0 0 581.2 217" style="enable-background:new 0 0 581.2 217;" xml:space="preserve">
<style type="text/css">
	.st0{clip-path:url(#SVGID_2_);}
	.st1{fill:#04A586;}
	.st2{fill:url(#SVGID_3_);}
	.st3{opacity:0.29;}
	.st4{clip-path:url(#SVGID_5_);}
	.st5{opacity:0.3;fill:#E9FFFA;enable-background:new    ;}
	.st6{fill:#FFFFFF;}
	.st7{fill:#04A385;}
</style>
<g>
	<g id="Layer_2_1_">
		<g id="Layer_1-2">
			<g>
				<defs>
					<path id="SVGID_1_" d="M79.3,0h58.4C181.5,0,217,35.5,217,79.3v58.4c0,43.8-35.5,79.3-79.3,79.3H79.3C35.5,217,0,181.5,0,137.7
						V79.3C0,35.5,35.5,0,79.3,0z"/>
				</defs>
				<clipPath id="SVGID_2_">
					<use xlink:href="#SVGID_1_"  style="overflow:visible;"/>
				</clipPath>
				<g class="st0">
					<path class="st1" d="M33.1-3h141.7C198.1-3,217,15.9,217,39.1v141.7c0,23.3-18.9,42.1-42.1,42.1H33.1C9.9,223-9,204.1-9,180.9
						V39.1C-9,15.9,9.9-3,33.1-3z"/>
					
						<radialGradient id="SVGID_3_" cx="138.33" cy="142" r="268.8" gradientTransform="matrix(1 0 0 -1 0 202)" gradientUnits="userSpaceOnUse">
						<stop  offset="0" style="stop-color:#11C19E"/>
						<stop  offset="1" style="stop-color:#009F99"/>
					</radialGradient>
					<path class="st2" d="M36-6.5h143c23.5,0,42.5,19,42.5,42.5v143c0,23.5-19,42.5-42.5,42.5H36c-23.5,0-42.5-19-42.5-42.5V36
						C-6.5,12.5,12.5-6.5,36-6.5z"/>
					<g class="st3">
						<g>
							<defs>
								<path id="SVGID_4_" d="M36-6.5h143c23.5,0,42.5,19,42.5,42.5v143c0,23.5-19,42.5-42.5,42.5H36c-23.5,0-42.5-19-42.5-42.5V36
									C-6.5,12.5,12.5-6.5,36-6.5z"/>
							</defs>
							<clipPath id="SVGID_5_">
								<use xlink:href="#SVGID_4_"  style="overflow:visible;"/>
							</clipPath>
							<g class="st4">
								<path class="st5" d="M-62.6-221c-98,0-177.5,79.5-177.5,177.5S-160.6,134-62.6,134S114.9,54.5,114.9-43.5S35.4-221-62.6-221
									z M-62.6,70.9C-125.8,70.9-177,19.7-177-43.5c0-63.2,51.2-114.4,114.4-114.4c63.2,0,114.4,51.2,114.4,114.4c0,0,0,0,0,0
									C51.8,19.7,0.6,70.9-62.6,70.9L-62.6,70.9z"/>
								<path class="st5" d="M244.4,67c-98,0-177.5,79.5-177.5,177.5S146.4,422,244.4,422s177.5-79.5,177.5-177.5S342.4,67,244.4,67
									L244.4,67z M244.4,358.9c-63.2,0-114.4-51.2-114.4-114.4c0-63.2,51.2-114.4,114.4-114.4c63.2,0,114.4,51.2,114.4,114.4
									c0,0,0,0,0,0C358.8,307.7,307.6,358.9,244.4,358.9z"/>
							</g>
						</g>
					</g>
					
						<image style="overflow:visible;opacity:0.5;enable-background:new    ;" width="163" height="163" xlink:href="D7195DD6.png"  transform="matrix(1 0 0 1 28.97 28.94)">
					</image>
					<path class="st6" d="M108.3,174c15.6,0,30.7-5.5,42.6-15.6V174h23.4v-65.5l0,0c0-0.2,0-0.3,0-0.5c0-36.5-29.5-66-66-66
						s-66,29.5-66,66S71.8,174,108.3,174z M108.3,65.4c23.5,0,42.6,19.1,42.6,42.6s-19.1,42.6-42.6,42.6S65.8,131.5,65.8,108
						S84.8,65.4,108.3,65.4L108.3,65.4z"/>
				</g>
			</g>
			<path class="st7" d="M452,51.9c-29.3,0-53,23.7-53,53s23.7,53,53,53s53-23.7,53-53S481.3,51.9,452,51.9L452,51.9z M452,139.1
				c-18.9,0-34.2-15.3-34.2-34.2s15.3-34.2,34.2-34.2c18.9,0,34.2,15.3,34.2,34.2C486.2,123.8,470.9,139.1,452,139.1
				C452,139.1,452,139.1,452,139.1z"/>
			<path class="st7" d="M286.2,157.9c12.5,0,24.6-4.4,34.2-12.5v12.5h18.8v-52.6l0,0c0-0.1,0-0.2,0-0.4c0-29.3-23.7-53-53-53
				s-53,23.7-53,53S256.9,157.9,286.2,157.9z M286.2,70.8c18.9,0,34.2,15.3,34.1,34.2c0,18.9-15.3,34.2-34.2,34.1
				c-18.9,0-34.1-15.3-34.1-34.2C252,86.1,267.3,70.8,286.2,70.8C286.2,70.8,286.2,70.8,286.2,70.8z"/>
			<path class="st7" d="M564.9,139.1c-18.9,0-34.2-15.3-34.2-34.2s15.3-34.2,34.2-34.2l0,0h16.3V51.9h-16.3c-29.3,0-53,23.7-53,53
				s23.7,53,53,53h16.3v-18.8H564.9z"/>
			<polygon class="st7" points="364.8,64.4 364.8,51.9 346,51.9 346,71.1 364.8,71.1 			"/>
			<path class="st7" d="M399,139.1c-18.9,0-34.2-15.3-34.2-34.2v-15H346v16.2l0,0c0.6,28.8,24.2,51.8,53,51.8l0,0V139.1z"/>
		</g>
	</g>
</g>
</svg>
